<?xml version="1.0" encoding="utf-8"?><!-- Uploaded to: SVG Repo, www.svgrepo.com, Generator: SVG Repo Mixer Tools -->
<svg width="800px" height="800px" viewBox="0 0 24 24" fill="none" xmlns="http://www.w3.org/2000/svg">
<path d="M7.5 18C8.32843 18 9 18.6716 9 19.5C9 20.3284 8.32843 21 7.5 21C6.67157 21 6 20.3284 6 19.5C6 18.6716 6.67157 18 7.5 18Z" stroke="#1C274C" stroke-width="1.5"/>
<path d="M16.5 18.0001C17.3284 18.0001 18 18.6716 18 19.5001C18 20.3285 17.3284 21.0001 16.5 21.0001C15.6716 21.0001 15 20.3285 15 19.5001C15 18.6716 15.6716 18.0001 16.5 18.0001Z" stroke="#1C274C" stroke-width="1.5"/>
<path d="M2 3L2.26121 3.09184C3.5628 3.54945 4.2136 3.77826 4.58584 4.32298C4.95808 4.86771 4.95808 5.59126 4.95808 7.03836V9.76C4.95808 12.7016 5.02132 13.6723 5.88772 14.5862C6.75412 15.5 8.14857 15.5 10.9375 15.5H12M16.2404 15.5C17.8014 15.5 18.5819 15.5 19.1336 15.0504C19.6853 14.6008 19.8429 13.8364 20.158 12.3075L20.6578 9.88275C21.0049 8.14369 21.1784 7.27417 20.7345 6.69708C20.2906 6.12 18.7738 6.12 17.0888 6.12H11.0235M4.95808 6.12H7" stroke="#1C274C" stroke-width="1.5" stroke-linecap="round"/>
</svg>


<!-- minimog  -->
 <svg
      class="m-svg-icon--medium"
      fill="currentColor"
      stroke="currentColor"
      xmlns="http://www.w3.org/2000/svg"
      viewBox="0 0 448 512"
    >
      <path d="M352 128C352 57.42 294.579 0 224 0 153.42 0 96 57.42 96 128H0v304c0 44.183 35.817 80 80 80h288c44.183 0 80-35.817 80-80V128h-96zM224 48c44.112 0 80 35.888 80 80H144c0-44.112 35.888-80 80-80zm176 384c0 17.645-14.355 32-32 32H80c-17.645 0-32-14.355-32-32V176h48v40c0 13.255 10.745 24 24 24s24-10.745 24-24v-40h160v40c0 13.255 10.745 24 24 24s24-10.745 24-24v-40h48v256z"/>
    </svg>